<svg id="Layer_1" data-name="Layer 1" xmlns="http://www.w3.org/2000/svg" viewBox="0 0 146.18 70"><defs><style>.cls-1{fill:#345b9b;}</style></defs><title>key_ic</title><path class="cls-1" d="M147.43,73.93Q141.79,67,136.28,60A3.7,3.7,0,0,0,133,58.4c-20.88.05-41.76,0-62.64.08a4.42,4.42,0,0,1-4.28-2.33A34.23,34.23,0,0,0,37.56,40.08a38.12,38.12,0,0,0-17,4.07C.92,54.33-4.38,80.93,9.94,97.51c15.78,18.28,43.42,16.34,56.47-4a3.19,3.19,0,0,1,3.51-1.77c5.73.86,10.64-.37,14-5.5,0-.06.1-.1.14-.15.67-.91,1.26-.77,2,0,1.47,1.57,3.09,3,4.52,4.6.9,1,1.42.85,2.28,0,2.79-2.89,5.71-5.67,8.5-8.57.87-.91,1.39-1,2.31,0,2.78,2.91,5.72,5.66,8.48,8.58,1,1,1.53.89,2.43,0,2.74-2.85,5.61-5.58,8.35-8.43.93-1,1.49-1.05,2.46,0,2.78,2.92,5.69,5.69,8.49,8.58.82.84,1.26.94,2.05-.07q5.72-7.29,11.57-14.45C148.25,75.27,148.09,74.74,147.43,73.93ZM21.73,85.07a10,10,0,1,1,.24-20,10,10,0,0,1-.24,20Z" transform="translate(-1.82 -40.08)"/></svg>