<svg id="Layer_1" data-name="Layer 1" xmlns="http://www.w3.org/2000/svg" xmlns:xlink="http://www.w3.org/1999/xlink" viewBox="0 0 104.95 116.96"><defs><style>.cls-1,.cls-2,.cls-3{fill:none;}.cls-1,.cls-2{clip-rule:evenodd;}.cls-2{clip-path:url(#clip-path);}.cls-4{clip-path:url(#clip-path-2);}.cls-5{clip-path:url(#clip-path-3);}.cls-6{fill:#2f5597;}</style><clipPath id="clip-path"><polygon class="cls-1" points="0.34 149.36 150 149.36 150 0.09 0.34 0.09 0.34 149.36 0.34 149.36"/></clipPath><clipPath id="clip-path-2" transform="translate(-26.53 -27.79)"><polygon class="cls-2" points="150 0.09 150 149.36 0.34 149.36 0.34 0.09 150 0.09 150 0.09"/></clipPath><clipPath id="clip-path-3" transform="translate(-26.53 -27.79)"><polygon class="cls-3" points="0.34 0.09 0.34 149.36 150 149.36 150 0.09 0.34 0.09 0.34 0.09"/></clipPath></defs><title>logout_blue_ic</title><g class="cls-4"><g class="cls-5"><polygon class="cls-6" points="72.08 116.96 104.95 84.18 73.16 52.32 72.85 72.48 24.23 72.48 24.23 24.16 42.44 24.16 42.44 0 0 0 0 96.64 72.38 96.64 72.08 116.96 72.08 116.96"/></g></g></svg>